<svg xmlns="http://www.w3.org/2000/svg" fill="none" viewBox="0 0 44 31">
  <g fill="#fff" fill-rule="evenodd" clip-rule="evenodd">
    <path d="M22 12h-3v7h1v-2h2c2 0 3-1 3-3 0-1-1-2-3-2Zm0 4h-2v-3h2l2 1-2 2ZM28 13c-2 0-3 1-3 2h2l1-1 1 1v1h-2l-2 2 2 1 2-1v1h1v-4l-2-2Zm1 4-2 1-1-1h3ZM34 18l-2-5h-1l2 6-1 1v1c1 0 2 0 2-2l3-6h-2l-1 5Z"/>
    <path d="M41 0H3C1 0 0 1 0 3v24c0 2 1 3 3 3h38c2 0 3-1 3-3V3c0-2-1-3-3-3Zm2 27-2 2H3l-2-2V3l2-2h38l2 2v24Z"/>
    <path d="m15 14 2-2-3-1h-4l-2 1c-1 2 0 4 1 6l1 1h4l2-1 1-2s-2 0-2-2ZM14 8l-1 1-1 2 2-1V8Z"/>
  </g>
</svg>
