<svg width="23" height="41" viewBox="0 0 23 41" fill="none" xmlns="http://www.w3.org/2000/svg">
<path id="Vector" d="M22.0375 18.0254L5.11499 0.896748C4.83705 0.612599 4.50637 0.387064 4.14203 0.233153C3.77769 0.0792419 3.3869 0 2.99221 0C2.59751 0 2.20672 0.0792419 1.84238 0.233153C1.47805 0.387064 1.14737 0.612599 0.869422 0.896748C0.312562 1.46476 0 2.23313 0 3.03404C0 3.83495 0.312562 4.60332 0.869422 5.17133L15.6691 20.3294L0.869422 35.3359C0.312562 35.9039 0 36.6723 0 37.4732C0 38.2741 0.312562 39.0425 0.869422 39.6105C1.14633 39.897 1.47654 40.1249 1.84092 40.281C2.20531 40.4371 2.59663 40.5183 2.99221 40.52C3.38778 40.5183 3.7791 40.4371 4.14349 40.281C4.50788 40.1249 4.83809 39.897 5.11499 39.6105L22.0375 22.4819C22.341 22.198 22.5832 21.8534 22.7488 21.4699C22.9145 21.0864 23 20.6723 23 20.2536C23 19.835 22.9145 19.4208 22.7488 19.0373C22.5832 18.6538 22.341 18.3093 22.0375 18.0254Z" fill="#E3B486"/>
</svg>
