<svg width="23" height="41" viewBox="0 0 23 41" fill="none" xmlns="http://www.w3.org/2000/svg">
<path id="Vector" d="M0.962528 18.0254L17.885 0.896748C18.163 0.612599 18.4936 0.387064 18.858 0.233153C19.2223 0.0792419 19.6131 0 20.0078 0C20.4025 0 20.7933 0.0792419 21.1576 0.233153C21.522 0.387064 21.8526 0.612599 22.1306 0.896748C22.6874 1.46476 23 2.23313 23 3.03404C23 3.83495 22.6874 4.60332 22.1306 5.17133L7.33088 20.3294L22.1306 35.3359C22.6874 35.9039 23 36.6723 23 37.4732C23 38.2741 22.6874 39.0425 22.1306 39.6105C21.8537 39.897 21.5235 40.1249 21.1591 40.281C20.7947 40.4371 20.4034 40.5183 20.0078 40.52C19.6122 40.5183 19.2209 40.4371 18.8565 40.281C18.4921 40.1249 18.1619 39.897 17.885 39.6105L0.962528 22.4819C0.659044 22.198 0.416842 21.8534 0.251183 21.4699C0.0855236 21.0864 0 20.6723 0 20.2536C0 19.835 0.0855236 19.4208 0.251183 19.0373C0.416842 18.6538 0.659044 18.3093 0.962528 18.0254Z" fill="#E3B486"/>
</svg>
