<svg xmlns="http://www.w3.org/2000/svg" fill="none" viewBox="0 0 47 30">
  <path fill="#F9F9F9" d="M44 0H3C1 0 0 1 0 3v24c0 2 1 3 3 3h41c1 0 3-1 3-3V3c0-2-2-3-3-3Z"/>
  <path fill="#005BAC" fill-rule="evenodd" d="m19 9-2 12h3l2-12h-3Zm-4 0-3 8v-2a9 9 0 0 0-4-4l2 10h3l5-12h-3Zm11 4c0-2 3-2 5-1v-2l-3-1c-1 0-5 1-5 4s4 3 4 4c0 2-3 2-4 1l-1 2 3 1c2 0 5-1 5-4s-4-3-4-4Zm12-4h-2l-1 1-5 11h3l1-2h4v2h3L38 9Zm-3 8 1-5 1 5h-2Z" clip-rule="evenodd"/>
  <path fill="#F6AC1D" fill-rule="evenodd" d="M11 10 9 9H5v1l4 2 3 4-1-6Z" clip-rule="evenodd"/>
</svg>
