<svg fill="#ffffff" version="1.1" id="Capa_1" xmlns="http://www.w3.org/2000/svg" xmlns:xlink="http://www.w3.org/1999/xlink" xml:space="preserve" viewBox="0 9.93 56.5 36.62">

<g id="SVGRepo_bgCarrier" stroke-width="0"/>

<g id="SVGRepo_tracerCarrier" stroke-linecap="round" stroke-linejoin="round"/>

<g id="SVGRepo_iconCarrier"> <g> <path d="M36.782,27.01c0.153,1.155,0.188,2.317-0.049,3.464c-0.149,0.719-0.574,0.918-1.295,0.654c0-0.195,0-0.4,0-0.605 c0-1.172,0.006-2.344-0.005-3.513c-0.002-0.205,0.068-0.31,0.25-0.366c0.104-0.033,0.203-0.077,0.306-0.107 C36.432,26.406,36.721,26.553,36.782,27.01z M44.549,26.226c-0.092,0.107-0.17,0.254-0.188,0.392 c-0.062,0.483-0.096,0.971-0.141,1.478c0.492,0,0.92,0,1.449,0c-0.062-0.578-0.08-1.139-0.193-1.68 C45.385,25.975,44.844,25.883,44.549,26.226z M56.48,11.393v33.695c0,0.803-0.65,1.454-1.454,1.454H1.454 C0.65,46.542,0,45.89,0,45.087V11.393c0-0.803,0.65-1.454,1.454-1.454h53.572C55.83,9.939,56.48,10.591,56.48,11.393z M13.031,28.304c-0.314-0.229-0.681-0.39-1.028-0.572c-0.269-0.144-0.567-0.245-0.805-0.428c-0.129-0.099-0.232-0.341-0.208-0.497 c0.021-0.132,0.227-0.291,0.379-0.331c0.21-0.057,0.452-0.041,0.672-0.009c0.543,0.082,1.082,0.19,1.642,0.292 c0-0.66-0.008-1.329,0.005-1.998c0.004-0.193-0.065-0.274-0.241-0.331c-1.1-0.354-2.219-0.453-3.351-0.223 c-1.063,0.217-1.874,0.762-2.184,1.869c-0.066,0.233-0.098,0.477-0.146,0.715c0,0.178,0,0.354,0,0.532 c0.019,0.065,0.045,0.13,0.054,0.196c0.093,0.714,0.432,1.288,1.014,1.698c0.295,0.209,0.63,0.36,0.95,0.533 c0.276,0.149,0.565,0.278,0.83,0.444c0.201,0.126,0.301,0.358,0.193,0.565c-0.078,0.147-0.27,0.306-0.43,0.328 c-0.306,0.047-0.63,0.03-0.938-0.018c-0.499-0.076-0.99-0.199-1.51-0.309c0,0.748-0.006,1.465,0.01,2.184 c0.001,0.072,0.129,0.182,0.217,0.206c1.021,0.288,2.055,0.429,3.122,0.331c1.644-0.15,2.559-1.004,2.73-2.637 C14.115,29.845,13.894,28.935,13.031,28.304z M18.83,30.235c0-1.202-0.001-2.404,0-3.606c0-0.094,0.01-0.188,0.017-0.305 c0.44,0,0.851,0,1.272,0c0.143-0.694,0.282-1.366,0.428-2.076c-0.586,0-1.143,0-1.727,0c0-0.924,0-1.814,0-2.729 c-0.883,0.212-1.73,0.426-2.583,0.617c-0.212,0.047-0.279,0.154-0.314,0.352c-0.105,0.588-0.231,1.172-0.354,1.779 c-0.407,0-0.787,0-1.166,0c0,0.702,0,1.376,0,2.07c0.396,0,0.768,0,1.17,0c0,0.129,0,0.233,0,0.339c0,1.468-0.01,2.937,0.005,4.405 c0.013,1.25,0.568,2.076,1.575,2.32c1.14,0.276,2.26,0.038,3.378-0.168c0-0.784,0-1.531,0-2.308 c-0.385,0.043-0.735,0.097-1.088,0.117c-0.406,0.024-0.555-0.113-0.603-0.515C18.829,30.433,18.83,30.333,18.83,30.235z M26.772,24.515c0.003-0.212-0.08-0.287-0.271-0.337c-1.016-0.271-1.618-0.029-2.216,0.919c-0.119-0.213-0.244-0.413-0.344-0.626 c-0.078-0.166-0.183-0.223-0.366-0.22c-0.7,0.011-1.399,0.004-2.099,0.006c-0.074,0-0.148,0.015-0.214,0.022 c0,3.035,0,6.044,0,9.054c1.084,0,2.144,0,3.233,0c0-0.123,0-0.229,0-0.335c0-1.764,0-3.527,0-5.291 c0-0.665,0.091-0.771,0.766-0.859c0.165-0.021,0.335-0.032,0.5-0.019c0.322,0.029,0.643,0.078,1.004,0.123 C26.767,26.129,26.76,25.322,26.772,24.515z M30.782,24.27c-1.081,0-2.141,0-3.221,0c0,3.022,0,6.031,0,9.07 c1.084,0,2.144,0,3.221,0C30.782,30.31,30.782,27.293,30.782,24.27z M30.827,21.512c0-0.842-0.634-1.534-1.45-1.627 c-0.008-0.005-0.016-0.008-0.023-0.012c-0.118,0-0.237,0-0.355,0c-0.02,0.006-0.039,0.012-0.059,0.02 c-0.787,0.119-1.39,0.799-1.39,1.619c0,0.461,0.191,0.878,0.498,1.176c0.198,0.195,0.451,0.341,0.741,0.414 c0.131,0.033,0.265,0.05,0.396,0.048c0,0,0.002,0,0.004,0C30.094,23.149,30.827,22.416,30.827,21.512z M40.082,27.407 c-0.06-0.689-0.189-1.365-0.496-1.994c-0.281-0.574-0.693-1.013-1.322-1.187c-0.969-0.267-1.893-0.172-2.734,0.418 c-0.078,0.055-0.157,0.107-0.275,0.189c-0.24-0.632-0.752-0.62-1.277-0.578c-0.079,0.007-0.157,0.001-0.236,0.001 c-0.51,0-1.02,0-1.561,0c0,0.139,0,0.245,0,0.351c0,3.902,0,7.805,0,11.707c0,0.099,0.006,0.197,0.012,0.295 c1.084,0,2.168,0,3.253,0c0-1.081,0-2.161,0-3.223c0.483,0.047,0.942,0.133,1.399,0.127c1.571-0.015,2.514-0.736,2.98-2.239 c0.02-0.065,0.04-0.132,0.057-0.198C40.197,29.866,40.189,28.638,40.082,27.407z M44.286,29.88c1.438,0,2.884,0,4.427,0 c-0.072-0.984-0.096-1.922-0.221-2.845c-0.109-0.81-0.426-1.558-1.047-2.134c-0.756-0.703-1.693-0.847-2.667-0.804 c-1.903,0.085-3.043,0.934-3.509,2.635c-0.379,1.384-0.377,2.79-0.008,4.177c0.354,1.332,1.201,2.184,2.58,2.46 c1.229,0.246,2.447,0.19,3.657-0.112c0.696-0.176,0.696-0.175,0.696-0.892c0-0.547,0-1.097,0-1.668 c-0.301,0.053-0.561,0.103-0.82,0.146c-0.767,0.127-1.535,0.289-2.314,0.168C44.467,30.919,44.2,30.519,44.286,29.88z"/> </g> </g>

</svg>